<svg width="35" height="44" viewBox="0 0 35 44" fill="none" xmlns="http://www.w3.org/2000/svg">
<path d="M17.4404 2.182e-08C12.845 -0.000229624 8.43517 1.81225 5.16943 5.04349C1.90369 8.27474 0.0459542 12.6636 0 17.2562C0 29.1961 15.3693 42.4868 16.0234 43.0533C16.4182 43.3909 16.9208 43.5764 17.4404 43.5764C17.96 43.5764 18.4625 43.3909 18.8574 43.0533C19.6204 42.4868 34.8808 29.1961 34.8808 17.2562C34.8348 12.6636 32.9771 8.27474 29.7114 5.04349C26.4456 1.81225 22.0358 -0.000229624 17.4404 2.182e-08ZM17.4404 38.456C13.7997 34.9917 4.3601 25.3831 4.3601 17.2562C4.3601 13.789 5.7382 10.4639 8.19123 8.01227C10.6443 5.56063 13.9713 4.18332 17.4404 4.18332C20.9095 4.18332 24.2365 5.56063 26.6896 8.01227C29.1426 10.4639 30.5207 13.789 30.5207 17.2562C30.5207 25.3178 21.0811 34.9917 17.4404 38.456Z" fill="white"/>
<path d="M17.4404 8.71524C15.9313 8.71524 14.4561 9.16249 13.2013 10.0004C11.9465 10.8384 10.9685 12.0293 10.391 13.4228C9.81352 14.8162 9.66242 16.3495 9.95683 17.8288C10.2512 19.308 10.9779 20.6668 12.045 21.7333C13.1121 22.7998 14.4717 23.5261 15.9518 23.8203C17.4319 24.1146 18.9661 23.9636 20.3603 23.3864C21.7546 22.8092 22.9462 21.8318 23.7846 20.5777C24.6231 19.3237 25.0706 17.8493 25.0706 16.3411C25.0706 14.3186 24.2667 12.3789 22.8357 10.9488C21.4048 9.51867 19.464 8.71524 17.4404 8.71524ZM17.4404 19.6093C16.7936 19.6093 16.1614 19.4176 15.6236 19.0585C15.0859 18.6994 14.6667 18.1889 14.4192 17.5917C14.1717 16.9946 14.107 16.3374 14.2332 15.7035C14.3593 15.0695 14.6708 14.4872 15.1281 14.0301C15.5854 13.573 16.1681 13.2618 16.8024 13.1356C17.4368 13.0095 18.0943 13.0743 18.6918 13.3216C19.2893 13.569 19.8 13.9879 20.1594 14.5253C20.5187 15.0628 20.7105 15.6947 20.7105 16.3411C20.7105 17.2078 20.3659 18.0391 19.7527 18.652C19.1394 19.2649 18.3077 19.6093 17.4404 19.6093Z" fill="white"/>
</svg>
