<?xml version="1.0" standalone="no"?>
<!DOCTYPE svg PUBLIC "-//W3C//DTD SVG 20010904//EN"
 "http://www.w3.org/TR/2001/REC-SVG-20010904/DTD/svg10.dtd">
<svg version="1.0" xmlns="http://www.w3.org/2000/svg"
 width="49.000000pt" height="49.000000pt" viewBox="0 0 49.000000 49.000000"
 preserveAspectRatio="xMidYMid meet">

<g transform="translate(0.000000,49.000000) scale(0.100000,-0.100000)"
fill="#000000" stroke="none">
<path d="M53 455 c-17 -7 -36 -22 -42 -34 -7 -12 -11 -90 -11 -201 0 -209 0
-210 83 -164 50 28 59 29 197 32 154 3 181 10 199 49 14 31 14 258 0 285 -21
38 -68 48 -236 48 -112 -1 -167 -5 -190 -15z m385 -31 c21 -14 22 -22 22 -142
0 -70 -5 -134 -10 -142 -7 -12 -41 -16 -163 -20 -141 -5 -157 -7 -205 -32
l-52 -27 0 169 c0 225 -15 210 213 210 140 0 177 -3 195 -16z"/>
<path d="M97 353 c-11 -11 -8 -163 3 -163 6 0 10 11 10 25 0 22 4 25 35 25 24
0 35 5 35 15 0 10 -11 15 -35 15 -32 0 -35 2 -35 30 0 28 3 30 35 30 24 0 35
5 35 15 0 11 -11 15 -38 15 -21 0 -42 -3 -45 -7z"/>
<path d="M212 348 c-17 -17 -16 -161 1 -156 6 3 13 14 15 26 5 33 42 30 42 -3
0 -14 5 -25 10 -25 15 0 13 143 -2 158 -7 7 -21 12 -33 12 -12 0 -26 -5 -33
-12z m53 -48 c0 -16 -6 -26 -17 -28 -14 -3 -18 3 -18 28 0 25 4 31 18 28 11
-2 17 -12 17 -28z"/>
<path d="M327 342 c-11 -12 -17 -36 -17 -65 0 -61 24 -87 79 -87 42 0 64 16
37 26 -12 5 -16 20 -16 59 0 77 -43 111 -83 67z m53 -68 c0 -47 -3 -55 -17
-52 -13 2 -19 15 -21 42 -4 47 3 66 23 66 12 0 15 -12 15 -56z"/>
</g>
</svg>
