<svg width="46" height="46" viewBox="0 0 46 46" fill="none" xmlns="http://www.w3.org/2000/svg">
<path d="M24.8218 19.6073V32.1786H29.5356V35.8212H16.4644V32.1786H21.1782V23.2499H18.0356V19.6073H24.8218ZM23.2573 10.1913C23.8543 10.2505 24.4154 10.5144 24.8433 10.9423L25.0171 11.1337C25.3971 11.5975 25.6069 12.1811 25.6069 12.786C25.6069 13.2371 25.4902 13.6795 25.269 14.0702L25.1675 14.2343C24.9169 14.6092 24.5742 14.9122 24.1733 15.1141L23.9976 15.1942C23.5808 15.3668 23.1277 15.4277 22.6821 15.3729L22.4917 15.3427C21.986 15.2421 21.5214 14.9934 21.1567 14.6288C20.8379 14.3099 20.6077 13.9148 20.4878 13.4823L20.4429 13.2948C20.3423 12.7891 20.394 12.2644 20.5913 11.788L20.6714 11.6132C20.8734 11.212 21.1761 10.8688 21.5513 10.618L21.7153 10.5165C22.1061 10.2952 22.5492 10.1786 23.0005 10.1786L23.2573 10.1913Z" fill="#1A441D" stroke="#1A441D" stroke-width="0.5"/>
<path d="M18.6592 1.17773C22.9752 0.319225 27.449 0.759368 31.5146 2.44336L31.8945 2.60449C35.7969 4.30628 39.1316 7.09408 41.5 10.6387C43.9449 14.2977 45.25 18.5994 45.25 23C45.25 28.9011 42.9061 34.5607 38.7334 38.7334C34.5607 42.9061 28.9011 45.25 23 45.25C18.5994 45.25 14.2977 43.9449 10.6387 41.5C7.09408 39.1316 4.30628 35.7969 2.60449 31.8945L2.44336 31.5146C0.759368 27.449 0.319225 22.9752 1.17773 18.6592C2.03627 14.3431 4.15491 10.3783 7.2666 7.2666L7.56152 6.97852C10.6271 4.02442 14.478 2.00944 18.6592 1.17773ZM23 4.39258C19.3199 4.39258 15.722 5.48374 12.6621 7.52832C9.60235 9.5728 7.21792 12.4791 5.80957 15.8789C4.40127 19.2788 4.03211 23.0205 4.75 26.6299C5.46796 30.2393 7.24052 33.555 9.84277 36.1572C12.445 38.7595 15.7607 40.532 19.3701 41.25C22.9795 41.9679 26.7212 41.5987 30.1211 40.1904L30.752 39.915C33.8803 38.4814 36.5549 36.2066 38.4717 33.3379C40.5163 30.278 41.6074 26.6801 41.6074 23C41.6074 18.0651 39.6467 13.3323 36.1572 9.84277C32.6677 6.35326 27.9349 4.39258 23 4.39258Z" fill="#1A441D" stroke="#1A441D" stroke-width="0.5"/>
</svg>
